# xmcd
#
# Track frame offsets:
#	150
#	13067
#	24910
#	40595
#	54850
#	74280
#	86795
#	102232
#	113985
#	125075
#	136837
#	149450
#	162677
#	173727
#
# Disc length: 2492 seconds
#
# Revision: 1
# Processed by: cddbd v1.5.1PL2 Copyright (c) Steve Scherf et al.
# Submitted via: MusicWizard 7.2.0
#
DISCID=be09ba0e
DTITLE=Kern, Renate - Lieber ´mal Weinen Im Glück
DYEAR=1993
DGENRE=Deutsche Schlager
TTITLE0=Lieber ´mal Weinen Im Glück
TTITLE1=Lass´doch Den Sonnenschein
TTITLE2=Morgen Früh, Da Lachst Du Schon Wieder
TTITLE3=Du Musst Mit Den Wimpern Klimpern
TTITLE4=Er Nahm Ein Anderes Mädchen
TTITLE5=An Irgendeinem Tag
TTITLE6=Das Macht Diese Welt Erst Richtig Schön
TTITLE7=Lass´mich Heute Nicht Allein
TTITLE8=Lass´den Dummen Kummer
TTITLE9=Alle Blumen Brauchen Sonne
TTITLE10=Kiss And Shake
TTITLE11=Stop The Beat
TTITLE12=Morgen
TTITLE13=Schwarze Balalaika
EXTD=
EXTT0=
EXTT1=
EXTT2=
EXTT3=
EXTT4=
EXTT5=
EXTT6=
EXTT7=
EXTT8=
EXTT9=
EXTT10=
EXTT11=
EXTT12=
EXTT13=
PLAYORDER=
